<?xml version="1.0" encoding="UTF-8" standalone="no"?><!-- Generator: Gravit.io --><svg xmlns="http://www.w3.org/2000/svg" xmlns:xlink="http://www.w3.org/1999/xlink" style="isolation:isolate" viewBox="0 0 29 27" width="29pt" height="27pt"><defs><clipPath id="_clipPath_SP5CPuShptVDNOZzYPT3ZAsawJ9Kh3uT"><rect width="29" height="27"/></clipPath></defs><g clip-path="url(#_clipPath_SP5CPuShptVDNOZzYPT3ZAsawJ9Kh3uT)"><path d=" M 8.5 0 L 8.187 0.406 L 7 2 L 0 2 L 0 20 L 11.063 20 C 11.031 19.672 11 19.34 11 19 C 11 18.66 11.031 18.328 11.063 18 L 2 18 L 2 4 L 8 4 L 8.313 3.594 L 9.5 2 L 16.5 2 L 17.688 3.594 L 18 4 L 24 4 L 24 9.469 C 24.697 9.687 25.367 9.98 26 10.344 L 26 2 L 19 2 L 17.812 0.406 L 17.5 0 L 8.5 0 Z  M 5 5 C 4.45 5 4 5.45 4 6 C 4 6.55 4.45 7 5 7 C 5.55 7 6 6.55 6 6 C 6 5.45 5.55 5 5 5 Z  M 13 5 C 9.691 5 7 7.691 7 11 C 7 13.707 8.816 16.004 11.281 16.75 C 11.434 16.086 11.629 15.45 11.906 14.844 C 10.186 14.358 8.999 12.787 9 11 C 9 8.793 10.793 7 13 7 C 14.787 6.999 16.358 8.186 16.844 9.906 C 17.449 9.625 18.086 9.437 18.75 9.281 C 18.004 6.816 15.707 5 13 5 Z  M 21 11 C 16.594 11 13 14.594 13 19 C 13 23.406 16.594 27 21 27 C 25.406 27 29 23.406 29 19 C 29 14.594 25.406 11 21 11 Z  M 21 13 C 24.324 13 27 15.676 27 19 C 27 22.324 24.324 25 21 25 C 17.676 25 15 22.324 15 19 C 15 15.676 17.676 13 21 13 Z  M 20 15 L 20 18 L 17 18 L 17 20 L 20 20 L 20 23 L 22 23 L 22 20 L 25 20 L 25 18 L 22 18 L 22 15 L 20 15 Z " fill="rgb(223,32,32)"/></g></svg>