<?xml version="1.0" encoding="UTF-8" standalone="no"?><!-- Generator: Gravit.io --><svg xmlns="http://www.w3.org/2000/svg" xmlns:xlink="http://www.w3.org/1999/xlink" style="isolation:isolate" viewBox="0 0 20 21" width="20pt" height="21pt"><defs><clipPath id="_clipPath_gyUOOTj6oq97yyqxyPnHaIh9ZKtYWfqA"><rect width="20" height="21"/></clipPath></defs><g clip-path="url(#_clipPath_gyUOOTj6oq97yyqxyPnHaIh9ZKtYWfqA)"><rect width="20" height="21" style="fill:rgb(123,103,103)" fill-opacity="0"/><clipPath id="_clipPath_w8FzmUeC4XcQozM2ZmAJs3mE4vSEebwi"><rect x="0" y="0" width="20" height="21" transform="matrix(1,0,0,1,0,0)" fill="rgb(255,255,255)"/></clipPath><g clip-path="url(#_clipPath_w8FzmUeC4XcQozM2ZmAJs3mE4vSEebwi)"><g><path d=" M 19.639 12.983 L 17.864 11.958 C 18.043 10.992 18.043 10 17.864 9.033 L 19.639 8.008 C 19.843 7.892 19.935 7.65 19.868 7.425 C 19.406 5.942 18.618 4.6 17.589 3.484 C 17.431 3.313 17.172 3.271 16.972 3.388 L 15.197 4.413 C 14.452 3.771 13.593 3.275 12.664 2.95 L 12.664 0.905 C 12.664 0.671 12.502 0.467 12.273 0.417 C 10.744 0.076 9.177 0.092 7.723 0.417 C 7.494 0.467 7.331 0.671 7.331 0.905 L 7.331 2.955 C 6.406 3.284 5.548 3.78 4.798 4.417 L 3.027 3.392 C 2.823 3.275 2.569 3.313 2.411 3.488 C 1.382 4.6 0.594 5.942 0.132 7.429 C 0.061 7.654 0.157 7.896 0.361 8.013 L 2.136 9.038 C 1.956 10.004 1.956 10.996 2.136 11.962 L 0.361 12.987 C 0.157 13.104 0.065 13.346 0.132 13.571 C 0.594 15.054 1.382 16.396 2.411 17.512 C 2.569 17.683 2.827 17.725 3.027 17.608 L 4.802 16.583 C 5.548 17.225 6.406 17.72 7.335 18.045 L 7.335 20.095 C 7.335 20.329 7.498 20.533 7.727 20.583 C 9.256 20.924 10.823 20.908 12.277 20.583 C 12.506 20.533 12.668 20.329 12.668 20.095 L 12.668 18.045 C 13.593 17.716 14.452 17.22 15.202 16.583 L 16.977 17.608 C 17.181 17.725 17.435 17.687 17.593 17.512 C 18.622 16.4 19.41 15.058 19.872 13.571 C 19.935 13.342 19.843 13.1 19.639 12.983 L 19.639 12.983 Z  M 9.998 13.829 C 8.16 13.829 6.665 12.333 6.665 10.496 C 6.665 8.658 8.16 7.163 9.998 7.163 C 11.835 7.163 13.331 8.658 13.331 10.496 C 13.331 12.333 11.835 13.829 9.998 13.829 Z " fill="rgb(255,255,255)"/></g></g></g></svg>