<?xml version="1.0" encoding="UTF-8" standalone="no"?><!-- Generator: Gravit.io --><svg xmlns="http://www.w3.org/2000/svg" xmlns:xlink="http://www.w3.org/1999/xlink" style="isolation:isolate" viewBox="0 0 24 24" width="24pt" height="24pt"><defs><clipPath id="_clipPath_1ZPvtQGueKO214AbwQYJA0uAqYeBoaeo"><rect width="24" height="24"/></clipPath></defs><g clip-path="url(#_clipPath_1ZPvtQGueKO214AbwQYJA0uAqYeBoaeo)"><g><circle vector-effect="non-scaling-stroke" cx="12" cy="12" r="12" fill="rgb(250,201,64)"/><path d=" M 3.716 7 C 6.415 7.697 8.758 7.707 10.716 7 Q 10.142 9.343 7.716 9.243 Q 4.497 8.935 3.716 7 Z " fill="rgb(0,0,0)"/><path d=" M 20.284 7 C 17.585 7.697 15.242 7.707 13.284 7 Q 13.858 9.343 16.284 9.243 Q 19.503 8.935 20.284 7 Z " fill="rgb(0,0,0)"/><path d="M 9.781 16 L 14.219 16 C 14.572 16 14.858 16.286 14.858 16.639 L 14.858 17.361 C 14.858 17.714 14.572 18 14.219 18 L 9.781 18 C 9.428 18 9.142 17.714 9.142 17.361 L 9.142 16.639 C 9.142 16.286 9.428 16 9.781 16 Z" style="stroke:none;fill:#000000;stroke-miterlimit:10;"/></g></g></svg>