<?xml version="1.0" encoding="UTF-8" standalone="no"?><!-- Generator: Gravit.io --><svg xmlns="http://www.w3.org/2000/svg" xmlns:xlink="http://www.w3.org/1999/xlink" style="isolation:isolate" viewBox="0 0 24 24" width="24pt" height="24pt"><defs><clipPath id="_clipPath_4R5hczOwxmpPCDSUx9PHLH8nbcOqfR8c"><rect width="24" height="24"/></clipPath></defs><g clip-path="url(#_clipPath_4R5hczOwxmpPCDSUx9PHLH8nbcOqfR8c)"><g><g><circle vector-effect="non-scaling-stroke" cx="306.37614329268297" cy="94.7573289902266" r="12" fill="rgb(250,201,64)"/><path d=" M 300.161 96.177 C 304.074 99.27 308.771 99.3 312.6 96.187 C 313.028 95.839 313.376 96.005 313.376 96.557 L 313.376 96.557 C 313.376 97.108 313.029 97.84 312.601 98.189 C 308.824 101.27 304.187 101.3 300.165 98.171 C 299.73 97.832 299.376 97.108 299.376 96.557 L 299.376 96.557 C 299.376 96.005 299.728 95.834 300.161 96.177 Z " fill="rgb(0,0,0)"/><circle vector-effect="non-scaling-stroke" cx="301.99747879756853" cy="90.3786644951133" r="1.6213355048866447" fill="rgb(0,0,0)"/><circle vector-effect="non-scaling-stroke" cx="310.71658800422244" cy="90.4168842786878" r="1.6595552884610925" fill="rgb(0,0,0)"/></g><rect x="294.376" y="128" width="24" height="28.5" transform="matrix(1,0,0,1,0,0)" fill="rgb(41,191,79)"/><g><circle vector-effect="non-scaling-stroke" cx="402.00000000000034" cy="94.7573289902266" r="12" fill="rgb(250,201,64)"/><g><path d=" M 399.573 91.757 C 399.649 91.501 399.692 91.23 399.692 90.95 C 399.692 89.464 398.486 88.257 397 88.257 C 395.514 88.257 394.308 89.464 394.308 90.95 C 394.308 91.23 394.351 91.501 394.427 91.757 C 394.774 90.666 395.795 89.873 397 89.873 C 398.205 89.873 399.226 90.666 399.573 91.757 Z " fill-rule="evenodd" fill="rgb(0,0,0)"/><path d=" M 409.573 91.757 C 409.649 91.501 409.692 91.23 409.692 90.95 C 409.692 89.464 408.486 88.257 407 88.257 C 405.514 88.257 404.308 89.464 404.308 90.95 C 404.308 91.23 404.351 91.501 404.427 91.757 C 404.774 90.666 405.795 89.873 407 89.873 C 408.205 89.873 409.226 90.666 409.573 91.757 Z " fill-rule="evenodd" fill="rgb(0,0,0)"/></g><path d=" M 394.308 97.757 L 409.308 97.757 C 408.054 101.01 405.433 102.697 402 102.757 C 398.887 102.558 396.549 100.911 394.308 97.757 Z " fill="rgb(0,0,0)"/></g><rect x="390" y="128" width="24" height="28.5" transform="matrix(1,0,0,1,0,0)" fill="rgb(41,191,79)"/><g><circle vector-effect="non-scaling-stroke" cx="210.75228658536582" cy="94.75732899022728" r="12" fill="rgb(250,201,64)"/><g><path d="M 204.752 95.757 L 216.752 95.757 C 217.304 95.757 217.752 96.205 217.752 96.757 L 217.752 96.757 C 217.752 97.309 217.304 97.757 216.752 97.757 L 204.752 97.757 C 204.2 97.757 203.752 97.309 203.752 96.757 L 203.752 96.757 C 203.752 96.205 204.2 95.757 204.752 95.757 Z" style="stroke:none;fill:#000000;stroke-miterlimit:10;"/><circle vector-effect="non-scaling-stroke" cx="206.26550517677674" cy="90.27054758163854" r="1.5132185914112313" fill="rgb(0,0,0)"/><circle vector-effect="non-scaling-stroke" cx="215.25228658536537" cy="90.2573289902266" r="1.4999999999999432" fill="rgb(0,0,0)"/></g></g><rect x="198.752" y="128" width="24" height="28.5" transform="matrix(1,0,0,1,0,0)" fill="rgb(213,158,7)"/><circle vector-effect="non-scaling-stroke" cx="115.12842987804868" cy="94.7573289902266" r="12" fill="rgb(250,201,64)"/><path d=" M 106.845 89.757 C 109.544 90.455 111.887 90.465 113.845 89.757 Q 113.27 92.1 110.845 92 Q 107.625 91.693 106.845 89.757 Z " fill="rgb(0,0,0)"/><path d=" M 123.412 89.757 C 120.713 90.455 118.37 90.465 116.412 89.757 Q 116.987 92.1 119.412 92 Q 122.631 91.693 123.412 89.757 Z " fill="rgb(0,0,0)"/><path d="M 112.909 98.757 L 117.348 98.757 C 117.7 98.757 117.987 99.044 117.987 99.396 L 117.987 100.118 C 117.987 100.471 117.7 100.757 117.348 100.757 L 112.909 100.757 C 112.557 100.757 112.27 100.471 112.27 100.118 L 112.27 99.396 C 112.27 99.044 112.557 98.757 112.909 98.757 Z" style="stroke:none;fill:#000000;stroke-miterlimit:10;"/><rect x="103.128" y="128" width="24" height="28.5" transform="matrix(1,0,0,1,0,0)" fill="rgb(221,65,65)"/><g><circle vector-effect="non-scaling-stroke" cx="19.50457317073176" cy="94.7573289902266" r="12" fill="rgb(250,201,64)"/><g><path d=" M 11.602 89.757 L 18.271 89.757 C 18.094 91.442 16.668 92.757 14.936 92.757 C 13.205 92.757 11.778 91.442 11.602 89.757 Z " fill-rule="evenodd" fill="rgb(0,0,0)"/><path d=" M 20.738 89.757 L 27.407 89.757 C 27.231 91.442 25.804 92.757 24.073 92.757 C 22.342 92.757 20.915 91.442 20.738 89.757 Z " fill-rule="evenodd" fill="rgb(0,0,0)"/></g><path d="M 13.505 98.757 L 25.505 98.757 C 26.056 98.757 26.505 99.205 26.505 99.757 L 26.505 99.757 C 26.505 100.309 26.056 100.757 25.505 100.757 L 13.505 100.757 C 12.953 100.757 12.505 100.309 12.505 99.757 L 12.505 99.757 C 12.505 99.205 12.953 98.757 13.505 98.757 Z" style="stroke:none;fill:#000000;stroke-miterlimit:10;"/></g><rect x="7.505" y="128" width="24" height="28.5" transform="matrix(1,0,0,1,0,0)" fill="rgb(221,65,65)"/></g><g><circle vector-effect="non-scaling-stroke" cx="12" cy="12" r="12" fill="rgb(250,201,64)"/><g><path d=" M 4.097 7 L 10.766 7 C 10.59 8.685 9.163 10 7.432 10 C 5.7 10 4.274 8.685 4.097 7 Z " fill-rule="evenodd" fill="rgb(0,0,0)"/><path d=" M 13.234 7 L 19.903 7 C 19.726 8.685 18.3 10 16.568 10 C 14.837 10 13.41 8.685 13.234 7 Z " fill-rule="evenodd" fill="rgb(0,0,0)"/></g><path d="M 6 16 L 18 16 C 18.552 16 19 16.448 19 17 L 19 17 C 19 17.552 18.552 18 18 18 L 6 18 C 5.448 18 5 17.552 5 17 L 5 17 C 5 16.448 5.448 16 6 16 Z" style="stroke:none;fill:#000000;stroke-miterlimit:10;"/></g></g></svg>