<?xml version="1.0" encoding="UTF-8" standalone="no"?><!-- Generator: Gravit.io --><svg xmlns="http://www.w3.org/2000/svg" xmlns:xlink="http://www.w3.org/1999/xlink" style="isolation:isolate" viewBox="0 0 30.9 27" width="30.9pt" height="27pt"><defs><clipPath id="_clipPath_HeTGAkHoQOpV38CAmX7CwLrGFb8IgAUA"><rect width="30.9" height="27"/></clipPath></defs><g clip-path="url(#_clipPath_HeTGAkHoQOpV38CAmX7CwLrGFb8IgAUA)"><path d=" M 29.893 21.214 L 9.643 21.214 L 9.643 20.25 C 9.643 19.72 9.209 19.286 8.679 19.286 L 6.75 19.286 C 6.22 19.286 5.786 19.72 5.786 20.25 L 5.786 21.214 L 0.964 21.214 C 0.434 21.214 0 21.648 0 22.179 L 0 24.107 C 0 24.637 0.434 25.071 0.964 25.071 L 5.786 25.071 L 5.786 26.036 C 5.786 26.566 6.22 27 6.75 27 L 8.679 27 C 9.209 27 9.643 26.566 9.643 26.036 L 9.643 25.071 L 29.893 25.071 C 30.423 25.071 30.857 24.637 30.857 24.107 L 30.857 22.179 C 30.857 21.648 30.423 21.214 29.893 21.214 Z  M 29.893 11.571 L 25.071 11.571 L 25.071 10.607 C 25.071 10.077 24.637 9.643 24.107 9.643 L 22.179 9.643 C 21.648 9.643 21.214 10.077 21.214 10.607 L 21.214 11.571 L 0.964 11.571 C 0.434 11.571 0 12.005 0 12.536 L 0 14.464 C 0 14.995 0.434 15.429 0.964 15.429 L 21.214 15.429 L 21.214 16.393 C 21.214 16.923 21.648 17.357 22.179 17.357 L 24.107 17.357 C 24.637 17.357 25.071 16.923 25.071 16.393 L 25.071 15.429 L 29.893 15.429 C 30.423 15.429 30.857 14.995 30.857 14.464 L 30.857 12.536 C 30.857 12.005 30.423 11.571 29.893 11.571 Z  M 29.893 1.929 L 17.357 1.929 L 17.357 0.964 C 17.357 0.434 16.923 0 16.393 0 L 14.464 0 C 13.934 0 13.5 0.434 13.5 0.964 L 13.5 1.929 L 0.964 1.929 C 0.434 1.929 0 2.362 0 2.893 L 0 4.821 C 0 5.352 0.434 5.786 0.964 5.786 L 13.5 5.786 L 13.5 6.75 C 13.5 7.28 13.934 7.714 14.464 7.714 L 16.393 7.714 C 16.923 7.714 17.357 7.28 17.357 6.75 L 17.357 5.786 L 29.893 5.786 C 30.423 5.786 30.857 5.352 30.857 4.821 L 30.857 2.893 C 30.857 2.362 30.423 1.929 29.893 1.929 Z " fill="rgb(255,255,255)"/></g></svg>