<?xml version="1.0" encoding="UTF-8" standalone="no"?><!-- Generator: Gravit.io --><svg xmlns="http://www.w3.org/2000/svg" xmlns:xlink="http://www.w3.org/1999/xlink" style="isolation:isolate" viewBox="0 0 22.6 25" width="22.6pt" height="25pt"><defs><clipPath id="_clipPath_DInLcyE4fF8DDkQcVjI3LHN9uU7JbVUj"><rect width="22.6" height="25"/></clipPath></defs><g clip-path="url(#_clipPath_DInLcyE4fF8DDkQcVjI3LHN9uU7JbVUj)"><path d=" M 18.825 17.671 C 17.871 17.671 17.018 18.047 16.365 18.637 L 7.417 13.429 C 7.48 13.14 7.53 12.851 7.53 12.55 C 7.53 12.249 7.48 11.96 7.417 11.672 L 16.265 6.514 C 16.943 7.141 17.834 7.53 18.825 7.53 C 20.909 7.53 22.59 5.848 22.59 3.765 C 22.59 1.682 20.909 0 18.825 0 C 16.742 0 15.06 1.682 15.06 3.765 C 15.06 4.066 15.11 4.355 15.173 4.644 L 6.325 9.802 C 5.648 9.174 4.757 8.785 3.765 8.785 C 1.682 8.785 0 10.467 0 12.55 C 0 14.634 1.682 16.315 3.765 16.315 C 4.757 16.315 5.648 15.926 6.325 15.299 L 15.261 20.52 C 15.198 20.783 15.161 21.059 15.161 21.335 C 15.161 23.356 16.805 25 18.825 25 C 20.846 25 22.49 23.356 22.49 21.335 C 22.49 19.315 20.846 17.671 18.825 17.671 Z " fill="rgb(48,70,106)"/></g></svg>