<?xml version="1.0" encoding="UTF-8" standalone="no"?><!-- Generator: Gravit.io --><svg xmlns="http://www.w3.org/2000/svg" xmlns:xlink="http://www.w3.org/1999/xlink" style="isolation:isolate" viewBox="0 0 20.1 19.3" width="20.1pt" height="19.3pt"><defs><clipPath id="_clipPath_iUJRXEfwAZZg5yDKITvvcTvEaPORkmxS"><rect width="20.1" height="19.3"/></clipPath></defs><g clip-path="url(#_clipPath_iUJRXEfwAZZg5yDKITvvcTvEaPORkmxS)"><path d=" M 20.046 7.317 C 19.985 7.128 19.818 6.992 19.62 6.97 L 13.144 6.28 L 10.492 0.273 C 10.329 -0.091 9.736 -0.091 9.575 0.273 L 6.926 6.28 L 0.449 6.97 C 0.251 6.991 0.084 7.127 0.024 7.317 C -0.036 7.507 0.019 7.715 0.165 7.85 L 5.001 12.253 L 3.651 18.684 C 3.61 18.88 3.687 19.081 3.847 19.2 C 3.932 19.263 4.036 19.297 4.142 19.297 C 4.227 19.297 4.314 19.276 4.392 19.227 L 10.034 15.944 L 15.676 19.228 C 15.848 19.328 16.062 19.318 16.222 19.201 C 16.382 19.082 16.458 18.881 16.418 18.685 L 15.067 12.25 L 19.903 7.848 C 20.051 7.714 20.107 7.507 20.046 7.317 Z " fill="rgb(48,70,106)"/></g></svg>