<?xml version="1.0" encoding="UTF-8" standalone="no"?><!-- Generator: Gravit.io --><svg xmlns="http://www.w3.org/2000/svg" xmlns:xlink="http://www.w3.org/1999/xlink" style="isolation:isolate" viewBox="0 0 18 17.5" width="18pt" height="17.5pt"><defs><clipPath id="_clipPath_QJ24wbwsTuvJdPjV5g5ezAXCVJGzJsfY"><rect width="18" height="17.5"/></clipPath></defs><g clip-path="url(#_clipPath_QJ24wbwsTuvJdPjV5g5ezAXCVJGzJsfY)"><path d=" M 10.321 16.328 L 9.431 17.217 C 9.055 17.594 8.445 17.594 8.073 17.217 L 0.283 9.431 C -0.094 9.055 -0.094 8.445 0.283 8.073 L 8.073 0.283 C 8.449 -0.094 9.059 -0.094 9.431 0.283 L 10.321 1.172 C 10.702 1.553 10.694 2.174 10.305 2.547 L 5.476 7.147 L 16.993 7.147 C 17.526 7.147 17.955 7.576 17.955 8.109 L 17.955 9.391 C 17.955 9.924 17.526 10.353 16.993 10.353 L 5.476 10.353 L 10.305 14.953 C 10.698 15.326 10.706 15.947 10.321 16.328 Z " fill="rgb(255,255,255)"/></g></svg>