<?xml version="1.0" encoding="UTF-8" standalone="no"?><!-- Generator: Gravit.io --><svg xmlns="http://www.w3.org/2000/svg" xmlns:xlink="http://www.w3.org/1999/xlink" style="isolation:isolate" viewBox="0 0 28 25" width="28pt" height="25pt"><defs><clipPath id="_clipPath_DU22ZWsI3pibGElpmFz6igWU0LNgft5e"><rect width="28" height="25"/></clipPath></defs><g clip-path="url(#_clipPath_DU22ZWsI3pibGElpmFz6igWU0LNgft5e)"><path d=" M 19.58 0 L 19.58 0 C 21.792 0 23.924 0.881 25.488 2.446 C 27.053 4.011 27.925 6.133 27.925 8.345 C 27.925 10.018 27.566 11.664 26.873 13.183 C 26.217 14.586 25.344 15.881 24.283 17.005 C 23.267 18.085 22.152 19.083 20.956 19.964 C 19.877 20.782 18.762 21.556 17.629 22.302 L 17.629 22.302 C 17.629 22.302 17.629 22.302 17.62 22.302 C 17.134 22.626 16.648 22.959 16.172 23.291 C 15.785 23.552 15.416 23.831 15.057 24.128 L 14.004 25 L 12.952 24.128 C 12.593 23.831 12.224 23.552 11.837 23.291 C 11.361 22.959 10.875 22.626 10.38 22.302 C 10.38 22.302 10.38 22.302 10.38 22.302 L 10.371 22.302 C 9.247 21.556 8.132 20.782 7.044 19.964 C 5.857 19.083 4.742 18.085 3.726 17.005 C 2.665 15.881 1.783 14.586 1.127 13.183 C 0.434 11.664 0.075 10.018 0.075 8.345 C 0.075 6.133 0.956 4.011 2.521 2.446 C 4.085 0.881 6.208 0 8.42 0 L 8.429 0 C 8.429 0 8.429 0 8.429 0 C 10.488 0 12.476 0.764 14.004 2.14 C 15.533 0.764 17.521 0 19.58 0 C 19.58 0 19.58 0 19.58 0 Z  M 14.004 22.167 C 13.708 21.933 13.393 21.709 13.087 21.493 C 12.593 21.151 12.098 20.809 11.594 20.477 L 11.594 20.477 C 11.585 20.477 11.585 20.477 11.585 20.477 C 10.488 19.748 9.409 19.002 8.357 18.21 C 7.269 17.401 6.253 16.493 5.317 15.504 C 4.418 14.55 3.672 13.453 3.114 12.266 C 2.557 11.034 2.269 9.703 2.269 8.345 C 2.269 6.718 2.916 5.153 4.067 3.993 C 5.228 2.842 6.792 2.194 8.42 2.194 C 8.42 2.194 8.42 2.194 8.42 2.194 L 8.429 2.194 C 10.821 2.194 12.997 3.588 14.004 5.755 C 15.003 3.588 17.188 2.194 19.58 2.194 L 19.58 2.194 C 19.58 2.194 19.58 2.194 19.58 2.194 C 21.217 2.194 22.781 2.842 23.933 3.993 C 25.093 5.153 25.74 6.718 25.74 8.345 C 25.74 9.703 25.452 11.034 24.886 12.266 C 24.328 13.453 23.582 14.55 22.683 15.504 C 21.756 16.493 20.74 17.401 19.652 18.21 C 18.6 19.002 17.521 19.748 16.424 20.477 C 16.424 20.477 16.415 20.477 16.415 20.477 L 16.415 20.477 C 15.911 20.809 15.416 21.151 14.922 21.493 C 14.607 21.709 14.301 21.933 14.004 22.167 Z " fill-rule="evenodd" fill="rgb(213,49,49)"/></g></svg>