<?xml version="1.0" encoding="UTF-8" standalone="no"?><!-- Generator: Gravit.io --><svg xmlns="http://www.w3.org/2000/svg" xmlns:xlink="http://www.w3.org/1999/xlink" style="isolation:isolate" viewBox="0 0 94 94" width="94pt" height="94pt"><defs><clipPath id="_clipPath_AzqR2115Y4bSDz5qaEejzu6MBOGsrTup"><rect width="94" height="94"/></clipPath></defs><g clip-path="url(#_clipPath_AzqR2115Y4bSDz5qaEejzu6MBOGsrTup)"><path d="M 6 0 L 88 0 C 91.311 0 94 2.689 94 6 L 94 88 C 94 91.311 91.311 94 88 94 L 6 94 C 2.689 94 0 91.311 0 88 L 0 6 C 0 2.689 2.689 0 6 0 Z" style="stroke:none;fill:#C9C9C9;stroke-miterlimit:10;"/><path d=" M 49.9 44.1 L 49.9 31.051 L 44.1 31.051 L 44.1 44.1 L 31.051 44.1 L 31.051 49.9 L 44.1 49.9 L 44.1 62.949 L 49.9 62.949 L 49.9 49.9 L 62.949 49.9 L 62.949 44.1 L 49.9 44.1 Z " fill-rule="evenodd" fill="rgb(255,255,255)"/></g></svg>