<?xml version="1.0" encoding="UTF-8" standalone="no"?><!-- Generator: Gravit.io --><svg xmlns="http://www.w3.org/2000/svg" xmlns:xlink="http://www.w3.org/1999/xlink" style="isolation:isolate" viewBox="0 0 86 80.1" width="86pt" height="80.1pt"><defs><clipPath id="_clipPath_yi9LouAhmrcPNHqGLTUrJoVgovYFH445"><rect width="86" height="80.1"/></clipPath></defs><g clip-path="url(#_clipPath_yi9LouAhmrcPNHqGLTUrJoVgovYFH445)"><path d=" M 25.212 0 L 24.284 1.204 L 20.763 5.932 L 0 5.932 L 0 59.323 L 32.814 59.323 C 32.719 58.35 32.627 57.365 32.627 56.357 C 32.627 55.348 32.719 54.363 32.814 53.39 L 5.932 53.39 L 5.932 11.865 L 23.729 11.865 L 24.657 10.66 L 28.178 5.932 L 48.941 5.932 L 52.465 10.66 L 53.39 11.865 L 71.187 11.865 L 71.187 28.086 C 73.254 28.732 75.243 29.602 77.12 30.682 L 77.12 5.932 L 56.357 5.932 L 52.833 1.204 L 51.907 0 L 25.212 0 Z  M 14.831 14.831 C 13.199 14.831 11.865 16.165 11.865 17.797 C 11.865 19.428 13.199 20.763 14.831 20.763 C 16.462 20.763 17.797 19.428 17.797 17.797 C 17.797 16.165 16.462 14.831 14.831 14.831 Z  M 38.56 14.831 C 28.745 14.831 20.763 22.813 20.763 32.627 C 20.763 40.657 26.149 47.47 33.461 49.683 C 33.915 47.713 34.493 45.827 35.315 44.029 C 30.213 42.587 26.692 37.929 26.695 32.627 C 26.695 26.081 32.014 20.763 38.56 20.763 C 43.861 20.76 48.519 24.281 49.962 29.383 C 51.756 28.549 53.646 27.991 55.615 27.529 C 53.402 20.217 46.589 14.831 38.56 14.831 Z  M 62.289 32.627 C 49.22 32.627 38.56 43.288 38.56 56.357 C 38.56 69.425 49.22 80.086 62.289 80.086 C 75.358 80.086 86.018 69.425 86.018 56.357 C 86.018 43.288 75.358 32.627 62.289 32.627 Z  M 62.289 38.56 C 72.148 38.56 80.086 46.497 80.086 56.357 C 80.086 66.216 72.148 74.153 62.289 74.153 C 52.429 74.153 44.492 66.216 44.492 56.357 C 44.492 46.497 52.429 38.56 62.289 38.56 Z  M 59.323 44.492 L 59.323 53.39 L 50.424 53.39 L 50.424 59.323 L 59.323 59.323 L 59.323 68.221 L 65.255 68.221 L 65.255 59.323 L 74.153 59.323 L 74.153 53.39 L 65.255 53.39 L 65.255 44.492 L 59.323 44.492 Z " fill="rgb(145,145,145)"/></g></svg>