<?xml version="1.0" encoding="UTF-8" standalone="no"?><!-- Generator: Gravit.io --><svg xmlns="http://www.w3.org/2000/svg" xmlns:xlink="http://www.w3.org/1999/xlink" style="isolation:isolate" viewBox="0 0 24 24" width="24pt" height="24pt"><defs><clipPath id="_clipPath_Qwd8VsxsQfcEab4zhtLVAU8SXk5Z3YdT"><rect width="24" height="24"/></clipPath></defs><g clip-path="url(#_clipPath_Qwd8VsxsQfcEab4zhtLVAU8SXk5Z3YdT)"><g><circle vector-effect="non-scaling-stroke" cx="12" cy="12" r="12" fill="rgb(250,201,64)"/><g><path d=" M 9.573 9 C 9.649 8.744 9.692 8.473 9.692 8.192 C 9.692 6.706 8.486 5.5 7 5.5 C 5.514 5.5 4.308 6.706 4.308 8.192 C 4.308 8.473 4.351 8.744 4.427 9 C 4.774 7.909 5.795 7.115 7 7.115 C 8.205 7.115 9.226 7.909 9.573 9 Z " fill-rule="evenodd" fill="rgb(0,0,0)"/><path d=" M 19.573 9 C 19.649 8.744 19.692 8.473 19.692 8.192 C 19.692 6.706 18.486 5.5 17 5.5 C 15.514 5.5 14.308 6.706 14.308 8.192 C 14.308 8.473 14.351 8.744 14.427 9 C 14.774 7.909 15.795 7.115 17 7.115 C 18.205 7.115 19.226 7.909 19.573 9 Z " fill-rule="evenodd" fill="rgb(0,0,0)"/></g><path d=" M 4.308 15 L 19.308 15 C 18.054 18.253 15.433 19.94 12 20 C 8.887 19.8 6.549 18.154 4.308 15 Z " fill="rgb(0,0,0)"/></g></g></svg>