<?xml version="1.0" encoding="UTF-8" standalone="no"?><!-- Generator: Gravit.io --><svg xmlns="http://www.w3.org/2000/svg" xmlns:xlink="http://www.w3.org/1999/xlink" style="isolation:isolate" viewBox="0 0 28 25" width="28pt" height="25pt"><defs><clipPath id="_clipPath_Ue0jAqTwwyL4JKLAUUpDrBVpT8BvlyhN"><rect width="28" height="25"/></clipPath></defs><g clip-path="url(#_clipPath_Ue0jAqTwwyL4JKLAUUpDrBVpT8BvlyhN)"><path d=" M 14.005 25 C 13.648 24.708 13.283 24.424 12.917 24.159 C 12.325 23.729 11.732 23.309 11.132 22.888 L 11.132 22.888 C 11.132 22.888 11.123 22.888 11.123 22.879 C 9.817 21.984 8.528 21.033 7.274 20.055 C 5.976 19.04 4.766 17.907 3.651 16.664 C 2.58 15.466 1.692 14.095 1.03 12.605 C 0.359 11.069 0.011 9.397 0.011 7.706 C 0.011 5.667 0.786 3.702 2.162 2.258 C 3.538 0.814 5.41 0 7.352 0 C 7.352 0 7.352 0 7.352 0 L 7.361 0 C 8.763 0 10.13 0.42 11.306 1.207 C 12.481 2.002 13.422 3.126 14.005 4.461 C 14.598 3.126 15.529 2.002 16.714 1.207 C 17.889 0.42 19.257 0 20.659 0 L 20.659 0 C 20.659 0 20.659 0 20.659 0 C 22.609 0 24.473 0.814 25.849 2.258 C 27.234 3.702 28 5.667 28 7.706 C 28 9.397 27.66 11.069 26.99 12.605 C 26.328 14.095 25.44 15.466 24.36 16.664 C 23.254 17.907 22.043 19.04 20.746 20.055 C 19.492 21.033 18.203 21.984 16.897 22.879 C 16.888 22.888 16.888 22.888 16.888 22.888 L 16.879 22.888 C 16.287 23.309 15.695 23.729 15.103 24.159 C 14.728 24.424 14.362 24.708 14.005 25 Z " fill="rgb(213,49,49)"/></g></svg>