<?xml version="1.0" encoding="UTF-8" standalone="no"?><!-- Generator: Gravit.io --><svg xmlns="http://www.w3.org/2000/svg" xmlns:xlink="http://www.w3.org/1999/xlink" style="isolation:isolate" viewBox="0 0 25.1 22" width="25.1pt" height="22pt"><defs><clipPath id="_clipPath_xuwAbZSL38a8AiVrhauVcPGIg9RxQpj1"><rect width="25.1" height="22"/></clipPath></defs><g clip-path="url(#_clipPath_xuwAbZSL38a8AiVrhauVcPGIg9RxQpj1)"><path d=" M 0.898 4.041 L 24.245 4.041 C 24.741 4.041 25.143 3.639 25.143 3.143 L 25.143 0.898 C 25.143 0.402 24.741 0 24.245 0 L 0.898 0 C 0.402 0 0 0.402 0 0.898 L 0 3.143 C 0 3.639 0.402 4.041 0.898 4.041 Z  M 0.898 13.02 L 24.245 13.02 C 24.741 13.02 25.143 12.618 25.143 12.122 L 25.143 9.878 C 25.143 9.382 24.741 8.98 24.245 8.98 L 0.898 8.98 C 0.402 8.98 0 9.382 0 9.878 L 0 12.122 C 0 12.618 0.402 13.02 0.898 13.02 Z  M 0.898 22 L 24.245 22 C 24.741 22 25.143 21.598 25.143 21.102 L 25.143 18.857 C 25.143 18.361 24.741 17.959 24.245 17.959 L 0.898 17.959 C 0.402 17.959 0 18.361 0 18.857 L 0 21.102 C 0 21.598 0.402 22 0.898 22 Z " fill="rgb(48,70,106)"/></g></svg>