<?xml version="1.0" encoding="UTF-8" standalone="no"?><!-- Generator: Gravit.io --><svg xmlns="http://www.w3.org/2000/svg" xmlns:xlink="http://www.w3.org/1999/xlink" style="isolation:isolate" viewBox="0 0 15 20" width="15pt" height="20pt"><defs><clipPath id="_clipPath_DrStXdSrb7dMIYVvwt6uoLI5IhGWweR4"><rect width="15" height="20"/></clipPath></defs><g clip-path="url(#_clipPath_DrStXdSrb7dMIYVvwt6uoLI5IhGWweR4)"><path d=" M 6.729 19.596 C 1.054 11.368 0 10.524 0 7.5 C 0 3.358 3.358 0 7.5 0 C 11.642 0 15 3.358 15 7.5 C 15 10.524 13.946 11.368 8.271 19.596 C 7.898 20.135 7.102 20.134 6.729 19.596 Z  M 7.5 10.625 C 9.226 10.625 10.625 9.226 10.625 7.5 C 10.625 5.774 9.226 4.375 7.5 4.375 C 5.774 4.375 4.375 5.774 4.375 7.5 C 4.375 9.226 5.774 10.625 7.5 10.625 Z " fill="rgb(117,117,117)"/></g></svg>