<?xml version="1.0" encoding="UTF-8" standalone="no"?><!-- Generator: Gravit.io --><svg xmlns="http://www.w3.org/2000/svg" xmlns:xlink="http://www.w3.org/1999/xlink" style="isolation:isolate" viewBox="0 0 25 21" width="25pt" height="21pt"><defs><clipPath id="_clipPath_yv17YywWFyBwYF1Y7MFyvXhSagLYacZu"><rect width="25" height="21"/></clipPath></defs><g clip-path="url(#_clipPath_yv17YywWFyBwYF1Y7MFyvXhSagLYacZu)"><rect width="25" height="21" style="fill:rgb(123,103,103)" fill-opacity="0"/><clipPath id="_clipPath_4sIYoSGaOSzvk1rnAbcw00k2zkUlAjgq"><rect x="0" y="0" width="25" height="21" transform="matrix(1,0,0,1,0,0)" fill="rgb(255,255,255)"/></clipPath><g clip-path="url(#_clipPath_4sIYoSGaOSzvk1rnAbcw00k2zkUlAjgq)"><g><path d=" M 12.5 20.997 C 12.185 20.752 11.863 20.514 11.54 20.291 C 11.018 19.93 10.497 19.577 9.967 19.224 L 9.967 19.224 C 9.967 19.224 9.959 19.224 9.959 19.216 C 8.808 18.464 7.672 17.666 6.566 16.844 C 5.423 15.992 4.356 15.04 3.373 13.996 C 2.429 12.991 1.646 11.839 1.063 10.588 C 0.471 9.299 0.164 7.894 0.164 6.474 C 0.164 4.762 0.848 3.112 2.06 1.899 C 3.273 0.686 4.924 0.003 6.635 0.003 C 6.635 0.003 6.635 0.003 6.635 0.003 L 6.643 0.003 C 7.879 0.003 9.084 0.356 10.12 1.016 C 11.157 1.684 11.986 2.628 12.5 3.749 C 13.022 2.628 13.843 1.684 14.887 1.016 C 15.924 0.356 17.129 0.003 18.365 0.003 L 18.365 0.003 C 18.365 0.003 18.365 0.003 18.365 0.003 C 20.084 0.003 21.727 0.686 22.94 1.899 C 24.16 3.112 24.836 4.762 24.836 6.474 C 24.836 7.894 24.536 9.299 23.945 10.588 C 23.362 11.839 22.579 12.991 21.627 13.996 C 20.652 15.04 19.585 15.992 18.441 16.844 C 17.336 17.666 16.2 18.464 15.048 19.216 C 15.041 19.224 15.041 19.224 15.041 19.224 L 15.033 19.224 C 14.511 19.577 13.989 19.93 13.467 20.291 C 13.137 20.514 12.815 20.752 12.5 20.997 Z " fill="rgb(255,255,255)"/></g></g></g></svg>