<?xml version="1.0" encoding="UTF-8" standalone="no"?><!-- Generator: Gravit.io --><svg xmlns="http://www.w3.org/2000/svg" xmlns:xlink="http://www.w3.org/1999/xlink" style="isolation:isolate" viewBox="0 0 21 21" width="21pt" height="21pt"><defs><clipPath id="_clipPath_x96chi16BWc51EilS26o16W3FRUGFy4t"><rect width="21" height="21"/></clipPath></defs><g clip-path="url(#_clipPath_x96chi16BWc51EilS26o16W3FRUGFy4t)"><path d=" M 1.909 3.817 L 0 3.817 L 0 19.086 C 0 20.135 0.859 20.994 1.909 20.994 L 17.177 20.994 L 17.177 19.086 L 1.909 19.086 L 1.909 3.817 Z  M 19.086 0 L 5.726 0 C 4.676 0 3.817 0.859 3.817 1.909 L 3.817 15.269 C 3.817 16.318 4.676 17.177 5.726 17.177 L 19.086 17.177 C 20.135 17.177 20.994 16.318 20.994 15.269 L 20.994 1.909 C 20.994 0.859 20.135 0 19.086 0 Z  M 19.086 15.269 L 5.726 15.269 L 5.726 1.909 L 19.086 1.909 L 19.086 15.269 Z " fill="rgb(117,117,117)"/></g></svg>